<?xml version="1.0" standalone="no"?>
<!DOCTYPE svg PUBLIC "-//W3C//DTD SVG 20010904//EN"
 "http://www.w3.org/TR/2001/REC-SVG-20010904/DTD/svg10.dtd">
<svg version="1.0" xmlns="http://www.w3.org/2000/svg"
 width="500.000000pt" height="500.000000pt" viewBox="0 0 500.000000 500.000000"
 preserveAspectRatio="xMidYMid meet">

<g transform="translate(0.000000,500.000000) scale(0.100000,-0.100000)"
fill="#000000" stroke="none">
<path d="M1013 4348 c-188 -172 -339 -316 -337 -320 3 -5 117 -8 254 -8 l250
0 2 -382 3 -383 175 0 175 0 3 383 2 382 245 0 c134 0 246 4 249 9 5 7 -664
631 -676 631 -2 0 -158 -141 -345 -312z"/>
<path d="M2702 4348 c-187 -172 -338 -316 -336 -320 3 -4 117 -8 254 -8 l250
0 2 -382 3 -383 175 0 175 0 3 383 2 382 245 0 c134 0 246 4 249 9 4 7 -665
631 -677 631 -2 0 -157 -140 -345 -312z"/>
<path d="M1455 2970 c-97 -55 -202 -98 -314 -128 -88 -23 -118 -26 -366 -31
l-270 -6 0 -160 0 -160 275 0 c230 0 290 3 365 19 101 21 279 78 338 108 l39
20 52 -23 c380 -164 846 -170 1221 -14 l84 34 53 -23 c74 -33 227 -81 328
-102 71 -15 132 -19 360 -19 l275 0 0 160 0 160 -270 6 c-282 7 -312 11 -460
62 -96 34 -156 61 -226 102 l-60 35 -83 -45 c-216 -117 -482 -171 -715 -145
-180 20 -362 78 -499 159 -29 17 -54 31 -55 31 -1 -1 -33 -19 -72 -40z"/>
<path d="M1450 2039 c-79 -48 -193 -93 -320 -127 -86 -23 -119 -26 -360 -31
l-265 -6 0 -160 0 -160 230 -3 c321 -4 474 21 706 113 l86 35 89 -36 c261
-106 590 -139 867 -88 97 18 257 66 335 100 l55 24 102 -40 c226 -88 380 -112
695 -108 l225 3 0 160 0 160 -265 6 c-222 5 -278 10 -346 27 -112 29 -200 64
-314 123 l-97 51 -52 -32 c-190 -117 -488 -183 -724 -160 -179 17 -329 62
-486 145 -46 25 -86 45 -90 44 -3 0 -35 -19 -71 -40z"/>
<path d="M3888 1331 c-25 -10 -59 -28 -75 -39 -25 -18 -28 -26 -25 -60 5 -52
-16 -72 -74 -72 -39 0 -47 -4 -64 -32 -11 -18 -28 -53 -37 -77 -16 -43 -16
-45 2 -55 11 -6 35 -26 53 -45 34 -34 34 -35 81 -22 104 28 203 112 252 214
36 77 37 109 4 131 -13 9 -32 30 -40 46 -18 35 -16 35 -77 11z"/>
<path d="M4160 1326 c-5 -14 -23 -35 -40 -48 -28 -20 -31 -27 -25 -57 23 -123
153 -259 279 -293 47 -12 49 -12 71 14 12 14 36 33 53 42 l31 16 -15 45 c-9
24 -26 59 -38 77 -19 28 -28 33 -69 36 -59 4 -83 33 -73 87 l7 35 -73 35 c-86
42 -96 42 -108 11z"/>
<path d="M4014 1058 c-35 -56 -61 -78 -178 -161 -18 -12 -17 -15 23 -35 70
-37 110 -73 157 -144 25 -38 47 -68 50 -68 2 0 13 19 25 42 27 53 114 140 167
167 23 12 42 26 42 31 0 5 -18 19 -40 30 -57 29 -117 86 -157 148 -18 28 -37
52 -41 52 -5 0 -26 -28 -48 -62z"/>
<path d="M3665 828 c-17 -18 -39 -38 -50 -44 -19 -10 -19 -12 -1 -57 9 -25 27
-61 39 -79 20 -29 27 -32 63 -30 55 4 76 -17 72 -72 -2 -36 1 -43 30 -63 18
-12 54 -30 79 -39 46 -18 46 -18 62 5 9 13 28 35 44 50 35 33 34 63 -4 140
-53 107 -174 203 -270 216 -29 4 -39 0 -64 -27z"/>
<path d="M4345 842 c-109 -47 -199 -134 -234 -227 -27 -72 -26 -91 5 -111 14
-9 32 -30 40 -45 19 -37 36 -36 115 3 l64 33 -3 42 c-4 58 24 87 80 80 36 -5
41 -3 63 31 13 21 31 57 40 82 15 42 15 46 -2 55 -10 6 -32 25 -50 43 -36 36
-59 39 -118 14z"/>
</g>
</svg>
