<?xml version="1.0" encoding="utf-8"?>
<!-- Svg Vector Icons : http://www.onlinewebfonts.com/icon -->
<!DOCTYPE svg PUBLIC "-//W3C//DTD SVG 1.1//EN" "http://www.w3.org/Graphics/SVG/1.1/DTD/svg11.dtd">
<svg version="1.1" xmlns="http://www.w3.org/2000/svg" xmlns:xlink="http://www.w3.org/1999/xlink" x="0px" y="0px" viewBox="0 0 1000 1000" enable-background="new 0 0 1000 1000" xml:space="preserve">
<metadata> Svg Vector Icons : http://www.onlinewebfonts.com/icon </metadata>
<g><g transform="translate(0.000000,511.000000) scale(0.100000,-0.100000)"><path d="M4796.3,3376.1c-982.4-40.7-1885.7-347.4-2676.4-908.1c-318.7-225.2-888.9-809.9-1095-1121.4c-627.8-946.5-903.3-2127.7-920.1-3932l-4.8-575.1h4900h4900l-4.8,575.1c-16.8,1801.9-294.7,2995.1-920.1,3932c-191.7,285.1-608.6,733.2-908.1,975.2C7173.3,3043,5984.8,3426.4,4796.3,3376.1z M5234.8,2484.7c213.3-151,227.6-467.2,31.2-632.6c-162.9-136.6-369-136.6-531.9,0c-222.8,186.9-167.7,565.5,98.2,675.7C4932.9,2571,5148.6,2547,5234.8,2484.7z M3152.6,2096.6c301.9-167.7,268.4-606.2-57.5-728.4c-186.9-71.9-416.9,14.4-498.4,186.9C2424.2,1919.2,2805.2,2293,3152.6,2096.6z M7254.7,2091.8c179.7-119.8,242-342.6,148.6-536.7c-79.1-170.1-311.5-258.8-496-189.3C6476,1531.1,6591,2146.9,7051,2146.9C7139.7,2146.9,7197.2,2132.5,7254.7,2091.8z M8194,1622.1c-14.4-59.9-105.4-170.1-1325-1629.3L5826.6-1255.6V-1488c0-203.7-9.6-254-62.3-366.6c-86.3-184.5-184.5-289.9-361.8-385.8c-141.4-76.7-165.3-81.5-383.4-83.9l-234.8-2.4l-225.2-218c-239.6-232.4-304.3-263.6-493.6-237.2c-239.6,31.2-397.8,304.3-309.1,536.7c12,35.9,122.2,165.3,242,287.5l218,220.4l2.4,210.8c2.4,174.9,14.4,234.8,64.7,345c81.5,172.5,230,321.1,402.5,402.5c115,52.7,167.7,62.3,357,62.3L5266-714L6523.9,337.8c692.5,579.9,1337,1116.6,1430.5,1193.2C8131.7,1672.5,8215.6,1706,8194,1622.1z M8474.3,529.5c146.2-74.3,234.8-285.1,189.3-448.1c-47.9-184.5-206.1-306.7-393-306.7c-323.5,0-515.2,357-337.8,627.8C8043,572.6,8282.6,627.8,8474.3,529.5z M1966.5,436.1c112.6-83.9,162.9-186.9,162.9-325.9c0-359.4-414.5-539.1-673.3-292.3c-165.3,158.2-179.7,383.4-33.5,558.3c88.6,105.4,186.9,143.8,335.4,134.2C1846.7,503.2,1904.2,484,1966.5,436.1z M1552-1603c107.8-69.5,165.3-189.3,165.3-342.6c0-215.7-172.5-388.2-390.6-388.2c-275.6,0-469.6,242-400.2,503.2C998.5-1559.9,1312.4-1444.8,1552-1603z M8797.8-1545.5c201.3-57.5,333.1-285.1,275.5-486.4c-98.2-347.4-531.9-414.5-735.6-112.6c-105.4,155.8-57.5,426.5,93.5,531.9C8555.8-1523.9,8651.6-1504.7,8797.8-1545.5z"/><path d="M4810.7-1152.5c-167.7-83.9-254-313.9-184.5-498.4c172.5-450.5,814.7-306.7,776.3,172.5c-12,143.8-64.7,230-186.9,313.9C5119.8-1099.8,4930.5-1092.6,4810.7-1152.5z"/></g></g>
</svg>