<?xml version="1.0" encoding="utf-8"?>
<svg version="1.0" width="937.157pt" height="960pt" viewBox="0 0 960 960" xmlns="http://www.w3.org/2000/svg">
  <g transform="matrix(0.234679, 0, 0, -0.218955, -72.873749, 943.933228)" fill="#000000" stroke="none" style="">
    <path d="M1842 4013 c-85 -120 -475 -872 -599 -1158 -149 -340 -237 -600 -274 -805 -16 -91 -13 -292 6 -365 8 -33 17 -67 19 -75 27 -106 122 -263 219 -362 128 -131 253 -202 447 -254 94 -25 310 -25 410 0 321 81 558 297 659 601 34 103 44 172 43 303 -2 286 -168 748 -513 1432 -137 271 -334 633 -375 686 l-20 28 -22 -31z m-428 -1176 c6 -58 19 -120 36 -167 188 -524 215 -626 214 -805 -1 -65 -6 -89 -27 -131 -89 -175 -306 -221 -450 -95 -88 78 -124 197 -97 328 5 26 11 66 14 88 11 100 55 262 114 420 42 111 182 428 187 423 2 -2 6 -29 9 -61z"/>
    <path d="M3376 1024 c-21 -7 -54 -23 -73 -35 -31 -19 -34 -25 -29 -54 4 -18 4 -40 0 -49 -10 -26 -58 -47 -93 -40 -26 6 -32 2 -50 -27 -12 -19 -29 -54 -38 -78 -16 -43 -16 -45 2 -55 11 -6 34 -26 52 -43 27 -28 36 -32 65 -27 106 20 218 111 268 216 37 78 38 110 5 132 -13 9 -32 30 -40 46 -18 34 -16 34 -69 14z"/>
    <path d="M3635 1006 c-9 -18 -27 -38 -42 -45 -22 -10 -24 -15 -18 -49 24 -129 174 -278 300 -299 26 -4 36 0 52 21 11 14 32 31 47 37 32 15 33 38 2 104 -29 63 -42 73 -90 72 -53 -1 -80 31 -72 86 l6 38 -72 34 c-40 19 -78 35 -85 35 -7 0 -19 -15 -28 -34z"/>
    <path d="M3494 748 c-35 -56 -61 -78 -178 -161 -18 -12 -17 -15 23 -35 70 -37 110 -73 157 -144 25 -38 47 -68 50 -68 2 0 13 19 25 42 27 53 114 140 167 167 23 12 42 26 42 31 0 5 -18 19 -40 30 -57 29 -117 86 -157 148 -18 28 -37 52 -41 52 -5 0 -26 -28 -48 -62z"/>
    <path d="M3157 526 c-10 -14 -31 -33 -48 -42 -36 -18 -35 -37 9 -119 23 -42 32 -50 57 -52 17 0 38 -2 47 -2 31 -2 50 -31 46 -75 -2 -36 1 -43 30 -63 18 -12 54 -30 79 -39 46 -18 46 -18 62 5 9 13 28 35 44 50 35 33 34 63 -4 140 -53 106 -171 201 -271 217 -29 5 -37 2 -51 -20z"/>
    <path d="M3825 533 c-121 -49 -234 -177 -251 -285 -5 -29 -2 -37 20 -51 14 -10 33 -31 41 -47 20 -38 37 -38 116 2 l64 33 -3 42 c-4 58 24 87 80 80 36 -5 41 -3 63 31 13 21 31 57 40 82 15 42 15 46 -2 55 -10 6 -32 25 -50 43 -35 36 -59 39 -118 15z"/>
  </g>
</svg>