<?xml version="1.0" standalone="no"?>
<!DOCTYPE svg PUBLIC "-//W3C//DTD SVG 20010904//EN"
 "http://www.w3.org/TR/2001/REC-SVG-20010904/DTD/svg10.dtd">
<svg version="1.0" xmlns="http://www.w3.org/2000/svg"
 width="1000.000000pt" height="717.000000pt" viewBox="0 0 1000.000000 717.000000"
 preserveAspectRatio="xMidYMid meet">
<metadata>
Created by potrace 1.16, written by Peter Selinger 2001-2019
</metadata>
<g transform="translate(0.000000,717.000000) scale(0.100000,-0.100000)"
fill="#000000" stroke="none">
<path d="M4120 6569 c-24 -11 -75 -29 -114 -41 -176 -53 -459 -183 -626 -288
-44 -28 -84 -50 -90 -50 -5 0 -10 -4 -10 -10 0 -5 -6 -10 -14 -10 -8 0 -26
-14 -39 -31 -26 -34 -25 -65 6 -113 41 -62 58 -243 33 -350 -16 -65 -73 -161
-134 -224 -102 -104 -309 -168 -442 -136 -19 4 -37 8 -40 9 -27 5 -111 39
-115 46 -4 5 -24 9 -45 9 -38 0 -40 -3 -93 -82 -48 -75 -70 -111 -135 -229
-20 -37 -23 -42 -60 -114 -31 -61 -109 -247 -133 -317 -12 -35 -25 -67 -29
-73 -8 -12 -42 -132 -44 -160 -4 -44 2 -49 149 -106 156 -60 292 -184 370
-338 54 -106 70 -114 175 -86 30 8 78 18 105 21 28 3 82 17 120 31 39 14 87
29 107 34 38 9 119 39 173 64 158 71 217 101 311 155 128 73 286 186 399 285
44 38 82 73 85 77 3 4 37 40 76 80 38 40 85 93 104 118 19 25 45 56 58 70 20
21 184 264 219 325 69 118 191 400 208 481 2 11 15 60 30 109 28 96 45 176 49
238 3 40 -23 87 -48 87 -18 0 -104 47 -140 77 -66 54 -157 148 -191 197 -20
29 -51 97 -70 151 -19 53 -37 100 -40 103 -13 14 -86 8 -125 -9z"/>
<path d="M5733 6575 c-12 -8 -25 -29 -28 -47 -4 -18 -11 -39 -15 -48 -5 -8
-25 -51 -47 -94 -28 -59 -58 -100 -118 -161 -93 -96 -130 -125 -213 -165 -34
-16 -65 -37 -70 -47 -43 -82 116 -603 257 -838 16 -27 38 -66 49 -86 122 -221
377 -520 571 -668 39 -30 80 -63 92 -74 29 -27 239 -167 250 -167 5 0 28 -12
52 -27 67 -42 157 -87 227 -113 36 -13 70 -26 75 -30 16 -11 275 -97 315 -105
13 -3 63 -11 110 -20 47 -8 95 -17 106 -19 33 -7 60 19 93 87 28 59 73 120
144 196 44 48 197 146 251 161 26 7 49 17 52 21 3 5 14 9 24 9 25 0 50 37 50
74 0 31 -54 192 -121 361 -7 17 -13 32 -14 35 -3 8 -22 52 -48 110 -52 116
-235 424 -263 445 -22 16 -80 9 -127 -15 -43 -23 -110 -40 -183 -47 -106 -10
-287 60 -370 143 -110 109 -154 222 -149 385 2 57 5 111 7 119 10 31 22 56 40
82 10 14 18 42 18 62 0 42 -13 53 -178 151 -109 64 -411 215 -430 215 -5 0
-27 8 -48 17 -22 9 -41 17 -44 18 -49 13 -107 32 -180 60 -101 40 -108 41
-137 20z"/>
<path d="M4953 5091 c-10 -11 -44 -70 -76 -133 -60 -116 -78 -149 -87 -158 -3
-3 -14 -21 -24 -40 -11 -19 -24 -39 -29 -45 -4 -5 -34 -46 -65 -90 -31 -44
-82 -111 -112 -150 -73 -93 -329 -348 -410 -410 -36 -27 -71 -55 -78 -62 -65
-63 -298 -211 -468 -297 -121 -61 -146 -86 -118 -117 9 -10 20 -17 23 -14 10
6 171 -76 292 -149 109 -65 295 -199 384 -276 71 -62 335 -328 365 -368 14
-19 34 -46 46 -60 117 -152 263 -383 322 -514 46 -101 90 -101 129 1 88 234
459 715 709 921 37 30 72 60 78 65 13 12 150 113 186 138 14 9 44 30 68 47 23
16 45 30 47 30 3 0 33 17 68 39 96 58 187 105 234 121 50 15 63 42 36 72 -10
11 -65 43 -123 71 -240 115 -509 311 -734 532 -150 148 -262 283 -391 475 -79
117 -175 292 -175 321 0 17 -50 69 -68 69 -6 0 -19 -9 -29 -19z"/>
<path d="M2574 3372 c-12 -8 -54 -81 -54 -95 0 -21 -74 -119 -134 -177 -72
-70 -181 -149 -206 -150 -9 0 -20 -4 -25 -9 -6 -5 -35 -16 -65 -26 -67 -21
-88 -38 -84 -68 11 -86 29 -143 107 -337 35 -89 48 -123 48 -127 -1 -9 135
-263 175 -329 27 -43 55 -91 62 -105 25 -47 61 -79 91 -79 16 0 59 14 95 31
57 27 80 31 164 35 115 4 181 -11 282 -66 101 -55 204 -176 230 -270 39 -144
33 -273 -17 -380 -30 -63 -34 -91 -19 -112 36 -49 464 -273 656 -344 69 -26
161 -60 205 -76 99 -37 138 -44 151 -26 6 7 21 42 33 78 50 142 89 207 180
298 61 61 108 98 156 122 37 19 81 47 98 63 27 25 29 31 24 80 -3 28 -8 59
-11 67 -3 8 -7 29 -10 45 -12 86 -85 308 -149 459 -61 142 -180 351 -271 472
-17 23 -40 55 -51 70 -87 122 -322 357 -446 447 -13 9 -61 44 -105 76 -113 82
-364 232 -364 216 0 -2 -31 12 -70 31 -55 26 -242 96 -295 109 -5 1 -17 4 -25
7 -16 6 -106 31 -215 59 -74 20 -123 23 -141 11z"/>
<path d="M7230 3310 c-65 -9 -274 -67 -412 -115 -102 -35 -292 -120 -319 -142
-8 -7 -19 -13 -23 -13 -4 0 -32 -16 -62 -35 -30 -19 -58 -35 -63 -35 -4 0 -41
-24 -82 -52 -41 -29 -92 -65 -114 -81 -22 -15 -58 -43 -80 -63 -22 -20 -67
-58 -100 -86 -74 -62 -151 -142 -224 -233 -82 -103 -84 -105 -110 -134 -27
-29 -121 -172 -121 -184 0 -4 -13 -25 -30 -48 -16 -22 -39 -62 -51 -87 -12
-26 -27 -54 -34 -62 -6 -8 -20 -35 -30 -60 -10 -25 -26 -63 -36 -85 -9 -22
-27 -69 -39 -105 -12 -36 -28 -76 -35 -90 -14 -29 -34 -86 -40 -121 -2 -13
-14 -73 -26 -133 l-22 -110 31 -25 c16 -14 58 -42 92 -61 68 -38 196 -157 220
-205 8 -17 25 -44 38 -61 12 -17 32 -60 44 -95 11 -35 25 -68 29 -73 5 -6 9
-18 9 -27 0 -24 38 -49 73 -49 16 0 50 7 76 15 25 8 71 22 101 30 50 14 96 31
185 66 17 7 32 13 35 14 3 1 12 4 20 7 8 3 38 14 65 24 92 33 451 226 476 257
19 23 16 72 -8 126 -37 86 -49 219 -27 307 21 84 108 230 162 271 51 40 140
89 188 103 118 34 285 19 366 -35 51 -34 97 -33 130 3 33 34 117 170 152 244
14 31 38 72 51 92 27 40 85 159 85 175 0 6 11 27 25 47 14 20 25 45 25 56 0
10 9 36 20 56 11 20 40 86 65 147 57 135 54 171 -15 189 -112 31 -265 131
-327 213 -15 21 -35 45 -44 54 -31 31 -76 104 -94 152 -10 26 -26 52 -36 57
-20 11 -78 11 -159 0z"/>
</g>
</svg>
