<?xml version="1.0" standalone="no"?>
<!DOCTYPE svg PUBLIC "-//W3C//DTD SVG 20010904//EN"
 "http://www.w3.org/TR/2001/REC-SVG-20010904/DTD/svg10.dtd">
<svg version="1.0" xmlns="http://www.w3.org/2000/svg"
 width="512.000000pt" height="512.000000pt" viewBox="0 0 512.000000 512.000000"
 preserveAspectRatio="xMidYMid meet">

<g transform="translate(0.000000,512.000000) scale(0.100000,-0.100000)"
fill="#000000" stroke="none">
<path d="M2160 4761 l0 -219 -72 -17 c-831 -201 -1452 -914 -1538 -1764 -84
-837 367 -1645 1125 -2016 117 -57 293 -121 413 -150 l72 -17 0 -219 0 -219
400 0 400 0 0 219 0 219 73 17 c208 51 444 153 627 273 936 611 1201 1861 592
2792 -282 432 -723 744 -1219 865 l-73 17 0 219 0 219 -400 0 -400 0 0 -219z
m1384 -1203 c24 -7 61 -32 88 -58 103 -100 98 -249 -14 -344 -23 -20 -58 -41
-77 -46 -49 -13 -1913 -13 -1962 0 -47 13 -115 72 -141 124 -28 54 -28 135 -1
197 23 51 83 107 134 125 49 18 1914 19 1973 2z m636 -1025 c0 -16 -5 -71 -10
-123 -73 -705 -582 -1279 -1269 -1430 -491 -109 -1011 26 -1401 362 -260 225
-458 562 -524 893 -16 78 -35 243 -36 298 l0 27 1620 0 1620 0 0 -27z"/>
<path d="M1754 3427 c-3 -8 -4 -54 -2 -103 l3 -89 98 -3 97 -3 0 106 0 105
-95 0 c-70 0 -97 -4 -101 -13z"/>
<path d="M2224 3427 c-3 -8 -4 -54 -2 -103 l3 -89 98 -3 97 -3 0 106 0 105
-95 0 c-70 0 -97 -4 -101 -13z"/>
<path d="M2700 3335 l0 -106 98 3 97 3 0 100 0 100 -97 3 -98 3 0 -106z"/>
<path d="M3170 3335 l0 -106 98 3 97 3 0 100 0 100 -97 3 -98 3 0 -106z"/>
<path d="M2397 2060 c-159 -194 -291 -358 -294 -366 -4 -12 23 -14 161 -14
l166 0 0 -230 0 -231 295 328 c162 180 295 331 295 335 0 5 -74 8 -165 8
l-165 0 -2 261 -3 261 -288 -352z"/>
</g>
</svg>
